<svg aria-hidden="true" style="position: absolute; width: 0; height: 0; overflow: hidden;" version="1.1" xmlns="http://www.w3.org/2000/svg" xmlns:xlink="http://www.w3.org/1999/xlink">
<defs>
<symbol id="heart-1" viewBox="0 0 32 32">
<title>heart-1</title>
<path d="M29.415 4.545c-1.676-1.676-3.894-2.591-6.262-2.591s-4.593 0.923-6.268 2.598l-0.875 0.875-0.889-0.889c-1.676-1.676-3.908-2.605-6.275-2.605-2.361 0-4.586 0.923-6.255 2.591-1.676 1.676-2.598 3.901-2.591 6.268 0 2.368 0.929 4.586 2.605 6.262l12.74 12.74c0.176 0.176 0.414 0.271 0.644 0.271s0.468-0.088 0.644-0.265l12.767-12.72c1.676-1.676 2.598-3.901 2.598-6.268 0.007-2.368-0.909-4.593-2.585-6.268zM28.113 15.786l-12.123 12.075-12.096-12.096c-1.33-1.33-2.062-3.094-2.062-4.973s0.726-3.643 2.056-4.966c1.323-1.323 3.087-2.056 4.959-2.056 1.879 0 3.65 0.733 4.979 2.062l1.533 1.533c0.36 0.36 0.936 0.36 1.296 0l1.52-1.52c1.33-1.33 3.1-2.062 4.973-2.062s3.636 0.733 4.966 2.056c1.33 1.33 2.056 3.094 2.056 4.973 0.007 1.879-0.726 3.643-2.056 4.973z"></path>
</symbol>
<symbol id="instagram-logo-1" viewBox="0 0 32 32">
<title>instagram-logo-1</title>
<path d="M28.8 0h-25.6c-1.76 0-3.2 1.44-3.2 3.2v25.6c0 1.76 1.44 3.2 3.2 3.2h25.6c1.76 0 3.2-1.44 3.2-3.2v-25.6c0-1.76-1.44-3.2-3.2-3.2zM16 9.6c3.52 0 6.4 2.88 6.4 6.4s-2.88 6.4-6.4 6.4c-3.52 0-6.4-2.88-6.4-6.4s2.88-6.4 6.4-6.4zM4 28.8c-0.48 0-0.8-0.32-0.8-0.8v-13.6h3.36c-0.16 0.48-0.16 1.12-0.16 1.6 0 5.28 4.32 9.6 9.6 9.6s9.6-4.32 9.6-9.6c0-0.48 0-1.12-0.16-1.6h3.36v13.6c0 0.48-0.32 0.8-0.8 0.8h-24zM28.8 7.2c0 0.48-0.32 0.8-0.8 0.8h-3.2c-0.48 0-0.8-0.32-0.8-0.8v-3.2c0-0.48 0.32-0.8 0.8-0.8h3.2c0.48 0 0.8 0.32 0.8 0.8v3.2z"></path>
</symbol>
<symbol id="navigation" viewBox="0 0 32 32">
<title>navigation</title>
<path fill="#fff" style="fill: var(--color1, #fff)" d="M31.825 0.566c-0.183-0.189-0.465-0.242-0.703-0.132l-30.76 14.117c-0.247 0.114-0.392 0.375-0.356 0.645s0.244 0.485 0.512 0.529l13.797 2.312 1.577 13.038c0.033 0.271 0.241 0.49 0.511 0.536 0.035 0.006 0.070 0.009 0.105 0.009 0.232 0 0.45-0.131 0.555-0.345l14.873-30.004c0.116-0.235 0.072-0.518-0.111-0.706zM16.873 28.868l-1.383-11.438c-0.033-0.273-0.242-0.491-0.513-0.537l-12.266-2.056 27.337-12.546-13.175 26.577z"></path>
</symbol>
<symbol id="like-1" viewBox="0 0 32 32">
<title>like-1</title>
<path fill="#fff" style="fill: var(--color1, #fff)" d="M31.947 9.996c-0.467-5.141-4.106-8.871-8.66-8.871-3.034 0-5.812 1.633-7.375 4.249-1.549-2.651-4.213-4.25-7.199-4.25-4.553 0-8.193 3.73-8.66 8.871-0.037 0.227-0.188 1.422 0.272 3.371 0.663 2.811 2.196 5.368 4.43 7.393l11.148 10.117 11.34-10.116c2.235-2.025 3.767-4.582 4.43-7.394 0.46-1.948 0.309-3.144 0.273-3.371zM30.476 13.084c-0.606 2.568-2.009 4.907-4.056 6.76l-10.509 9.376-10.329-9.373c-2.050-1.857-3.453-4.196-4.059-6.763-0.436-1.844-0.257-2.886-0.256-2.893l0.009-0.062c0.4-4.504 3.527-7.774 7.436-7.774 2.884 0 5.424 1.772 6.629 4.625l0.567 1.343 0.567-1.343c1.186-2.809 3.859-4.624 6.812-4.624 3.909 0 7.036 3.27 7.444 7.832 0.001 0.010 0.18 1.052-0.255 2.897z"></path>
</symbol>
<symbol id="user" viewBox="0 0 32 32">
<title>user</title>
<path fill="#fff" style="fill: var(--color1, #fff)" d="M32 16c0-8.822-7.178-16-16-16s-16 7.178-16 16c0 4.66 2.004 8.86 5.193 11.786l-0.015 0.013 0.519 0.438c0.034 0.029 0.070 0.052 0.104 0.080 0.276 0.229 0.561 0.446 0.852 0.656 0.094 0.068 0.189 0.136 0.284 0.202 0.311 0.214 0.63 0.417 0.955 0.61 0.071 0.042 0.143 0.083 0.214 0.123 0.357 0.203 0.721 0.394 1.094 0.57 0.027 0.013 0.055 0.024 0.083 0.037 1.215 0.565 2.513 0.98 3.87 1.225 0.036 0.006 0.071 0.013 0.107 0.019 0.421 0.073 0.847 0.131 1.278 0.17 0.052 0.005 0.105 0.008 0.158 0.012 0.429 0.035 0.863 0.058 1.303 0.058 0.436 0 0.866-0.023 1.293-0.057 0.054-0.005 0.108-0.008 0.162-0.012 0.428-0.039 0.85-0.095 1.267-0.167 0.036-0.006 0.073-0.013 0.109-0.020 1.336-0.24 2.615-0.645 3.815-1.196 0.044-0.020 0.089-0.040 0.133-0.061 0.359-0.169 0.71-0.351 1.054-0.545 0.086-0.048 0.17-0.097 0.255-0.147 0.313-0.184 0.621-0.377 0.92-0.582 0.108-0.073 0.213-0.151 0.319-0.227 0.255-0.184 0.506-0.374 0.75-0.572 0.054-0.044 0.112-0.081 0.165-0.126l0.532-0.445-0.016-0.013c3.217-2.928 5.24-7.147 5.24-11.831zM1.164 16c0-8.181 6.655-14.836 14.836-14.836s14.836 6.655 14.836 14.836c0 4.408-1.935 8.372-4.997 11.091-0.171-0.118-0.343-0.224-0.52-0.312l-4.926-2.463c-0.442-0.221-0.717-0.666-0.717-1.16v-1.72c0.114-0.141 0.234-0.3 0.359-0.475 0.638-0.901 1.149-1.903 1.522-2.981 0.737-0.35 1.213-1.084 1.213-1.914v-2.063c0-0.504-0.185-0.994-0.516-1.378v-2.715c0.030-0.302 0.137-2.006-1.096-3.412-1.072-1.224-2.808-1.844-5.159-1.844s-4.087 0.62-5.159 1.843c-1.233 1.406-1.126 3.11-1.096 3.412v2.715c-0.33 0.385-0.516 0.874-0.516 1.378v2.063c0 0.641 0.287 1.238 0.78 1.641 0.471 1.846 1.441 3.244 1.8 3.717v1.684c0 0.475-0.259 0.911-0.676 1.139l-4.6 2.509c-0.147 0.080-0.292 0.173-0.438 0.277-3.025-2.718-4.931-6.657-4.931-11.034zM24.703 28.004c-0.204 0.148-0.411 0.291-0.621 0.428-0.097 0.063-0.193 0.126-0.291 0.187-0.275 0.17-0.554 0.332-0.839 0.483-0.063 0.033-0.126 0.065-0.19 0.097-0.655 0.336-1.333 0.624-2.029 0.859-0.024 0.008-0.049 0.017-0.074 0.025-0.365 0.121-0.734 0.229-1.108 0.321-0.001 0-0.002 0.001-0.003 0.001-0.377 0.093-0.759 0.17-1.143 0.234-0.010 0.002-0.021 0.004-0.031 0.006-0.361 0.059-0.726 0.101-1.091 0.133-0.065 0.006-0.129 0.010-0.194 0.015-0.361 0.027-0.724 0.045-1.089 0.045-0.369 0-0.737-0.018-1.103-0.045-0.063-0.005-0.127-0.009-0.19-0.015-0.369-0.033-0.736-0.076-1.1-0.136-0.016-0.003-0.033-0.006-0.049-0.009-0.769-0.129-1.526-0.318-2.263-0.565-0.023-0.008-0.046-0.016-0.069-0.023-0.366-0.125-0.728-0.262-1.083-0.415-0.002-0.001-0.005-0.002-0.008-0.003-0.336-0.145-0.666-0.305-0.992-0.475-0.042-0.022-0.086-0.043-0.127-0.066-0.297-0.159-0.588-0.33-0.875-0.51-0.085-0.054-0.169-0.108-0.253-0.162-0.264-0.173-0.525-0.353-0.778-0.543-0.026-0.020-0.051-0.041-0.077-0.061 0.019-0.010 0.037-0.021 0.056-0.031l4.6-2.509c0.791-0.432 1.283-1.26 1.283-2.161l-0.001-2.096-0.134-0.162c-0.013-0.015-1.271-1.545-1.746-3.617l-0.053-0.23-0.198-0.129c-0.28-0.181-0.447-0.483-0.447-0.81v-2.063c0-0.271 0.115-0.522 0.324-0.712l0.192-0.173v-3.241l-0.005-0.076c-0.002-0.014-0.173-1.413 0.812-2.537 0.841-0.959 2.283-1.446 4.284-1.446 1.993 0 3.43 0.483 4.274 1.435 0.984 1.112 0.823 2.537 0.822 2.549l-0.005 3.317 0.192 0.173c0.209 0.188 0.324 0.441 0.324 0.712v2.063c0 0.415-0.282 0.791-0.687 0.916l-0.289 0.089-0.093 0.288c-0.343 1.066-0.832 2.052-1.452 2.928-0.152 0.215-0.301 0.406-0.428 0.552l-0.144 0.165v2.152c0 0.938 0.521 1.782 1.36 2.2l4.926 2.463c0.031 0.016 0.062 0.032 0.093 0.048-0.062 0.047-0.126 0.091-0.189 0.136z"></path>
</symbol>
<symbol id="shopping-bag" viewBox="0 0 32 32">
<title>shopping-bag</title>
<path fill="#fff" style="fill: var(--color1, #fff)" d="M27.455 32h-22.909c-0.133 0-0.26-0.054-0.351-0.15s-0.14-0.225-0.134-0.358l1.091-22.909c0.013-0.259 0.225-0.462 0.485-0.462h20.727c0.259 0 0.472 0.203 0.485 0.462l1.091 22.909c0.006 0.133-0.042 0.262-0.134 0.358s-0.219 0.15-0.351 0.15zM5.054 31.030h21.892l-1.044-21.939h-19.803l-1.044 21.939z"></path>
<path fill="#fff" style="fill: var(--color1, #fff)" d="M21.241 11.030c-0.268 0-0.485-0.217-0.485-0.485v-4.819c0-2.622-2.133-4.756-4.756-4.756s-4.756 2.134-4.756 4.756v4.819c0 0.268-0.217 0.485-0.485 0.485s-0.485-0.217-0.485-0.485v-4.819c0-3.157 2.569-5.726 5.726-5.726s5.726 2.569 5.726 5.726v4.819c0 0.268-0.216 0.485-0.485 0.485z"></path>
</symbol>
<symbol id="add-searching" viewBox="0 0 32 32">
<title>add-searching</title>
<path d="M28.203 22.16c5.063-5.063 5.063-13.3 0-18.363s-13.3-5.063-18.363 0c-4.295 4.295-4.945 10.683-1.953 15.671 0 0 0.215 0.36-0.075 0.651-1.656 1.656-6.625 6.625-6.625 6.625-1.319 1.318-1.632 3.162-0.463 4.332l0.201 0.201c1.169 1.17 3.013 0.856 4.332-0.463 0 0 4.958-4.958 6.611-6.611 0.304-0.304 0.665-0.089 0.665-0.089 4.988 2.992 11.376 2.342 15.671-1.953zM12.237 19.763c-3.741-3.741-3.741-9.827 0-13.568s9.828-3.741 13.568 0c3.741 3.741 3.741 9.827 0 13.568s-9.827 3.741-13.568 0z"></path>
<path d="M24.16 11.109h-2.905c0 0-0.278-0.022-0.278-0.305 0-0.719 0-2.878 0-2.878 0-0.567-0.464-1.031-1.031-1.031h-1.709c-0.567 0-1.031 0.464-1.031 1.031 0 0 0 2.144 0 2.858 0 0.303-0.294 0.325-0.294 0.325h-2.889c-0.567 0-1.031 0.464-1.031 1.031v1.709c0 0.567 0.464 1.031 1.031 1.031h2.868c0 0 0.316 0.009 0.316 0.31 0 0.718 0 2.874 0 2.874 0 0.567 0.464 1.031 1.031 1.031h1.709c0.567 0 1.031-0.464 1.031-1.031 0 0 0-2.168 0-2.891 0-0.277 0.317-0.292 0.317-0.292h2.867c0.567 0 1.031-0.464 1.031-1.031v-1.709c-0-0.567-0.464-1.031-1.031-1.031z"></path>
</symbol>
<symbol id="facebook-app-logo" viewBox="0 0 32 32">
<title>facebook-app-logo</title>
<path d="M30.232 0.001h-28.466c-0.975 0-1.766 0.79-1.766 1.766v28.466c0 0.976 0.791 1.767 1.766 1.767h15.325v-12.392h-4.17v-4.83h4.17v-3.562c0-4.132 2.523-6.384 6.211-6.384 1.768 0 3.284 0.132 3.726 0.19v4.319l-2.558 0.001c-2.005 0-2.392 0.953-2.392 2.351v3.083h4.783l-0.625 4.83h-4.158v12.393h8.154c0.976 0 1.768-0.792 1.768-1.766v-28.467c-0.001-0.975-0.791-1.765-1.767-1.765z"></path>
</symbol>
</defs>
</svg>