<svg aria-hidden="true" style="position: absolute; width: 0; height: 0; overflow: hidden;" version="1.1" xmlns="http://www.w3.org/2000/svg" xmlns:xlink="http://www.w3.org/1999/xlink">
<defs>
<symbol id="untitled" viewBox="0 0 32 32">
<title>untitled</title>
<path d="M30.232 0.001h-28.466c-0.975 0-1.766 0.79-1.766 1.766v28.466c0 0.976 0.791 1.767 1.766 1.767h15.325v-12.392h-4.17v-4.83h4.17v-3.562c0-4.132 2.523-6.384 6.211-6.384 1.768 0 3.284 0.132 3.726 0.19v4.319l-2.558 0.001c-2.005 0-2.392 0.953-2.392 2.351v3.083h4.783l-0.625 4.83h-4.158v12.393h8.154c0.976 0 1.768-0.792 1.768-1.766v-28.467c-0.001-0.975-0.791-1.765-1.767-1.765z"></path>
</symbol>
<symbol id="untitled1" viewBox="0 0 34 32">
<title>untitled1</title>
<path d="M30.232 0.001h-28.466c-0.975 0-1.766 0.79-1.766 1.766v28.466c0 0.976 0.791 1.767 1.766 1.767h15.325v-12.392h-4.17v-4.83h4.17v-3.562c0-4.132 2.523-6.384 6.211-6.384 1.768 0 3.284 0.132 3.726 0.19v4.319l-2.558 0.001c-2.005 0-2.392 0.953-2.392 2.351v3.083h4.783l-0.625 4.83h-4.158v12.393h8.154c0.976 0 1.768-0.792 1.768-1.766v-28.467c-0.001-0.975-0.791-1.765-1.767-1.765z"></path>
</symbol>
<symbol id="heart" viewBox="0 0 37 32">
<title>heart</title>
<path d="M30.232 0.001h-28.466c-0.975 0-1.766 0.79-1.766 1.766v28.466c0 0.976 0.791 1.767 1.766 1.767h15.325v-12.392h-4.17v-4.83h4.17v-3.562c0-4.132 2.523-6.384 6.211-6.384 1.768 0 3.284 0.132 3.726 0.19v4.319l-2.558 0.001c-2.005 0-2.392 0.953-2.392 2.351v3.083h4.783l-0.625 4.83h-4.158v12.393h8.154c0.976 0 1.768-0.792 1.768-1.766v-28.467c-0.001-0.975-0.791-1.765-1.767-1.765z"></path>
</symbol>
<symbol id="facebook-app-logo" viewBox="0 0 32 32">
<title>facebook-app-logo</title>
<path d="M30.232 0.001h-28.466c-0.975 0-1.766 0.79-1.766 1.766v28.466c0 0.976 0.791 1.767 1.766 1.767h15.325v-12.392h-4.17v-4.83h4.17v-3.562c0-4.132 2.523-6.384 6.211-6.384 1.768 0 3.284 0.132 3.726 0.19v4.319l-2.558 0.001c-2.005 0-2.392 0.953-2.392 2.351v3.083h4.783l-0.625 4.83h-4.158v12.393h8.154c0.976 0 1.768-0.792 1.768-1.766v-28.467c-0.001-0.975-0.791-1.765-1.767-1.765z"></path>
</symbol>
<symbol id="instagram" viewBox="0 0 32 32">
<title>instagram</title>
<path d="M30.232 0.001h-28.466c-0.975 0-1.766 0.79-1.766 1.766v28.466c0 0.976 0.791 1.767 1.766 1.767h15.325v-12.392h-4.17v-4.83h4.17v-3.562c0-4.132 2.523-6.384 6.211-6.384 1.768 0 3.284 0.132 3.726 0.19v4.319l-2.558 0.001c-2.005 0-2.392 0.953-2.392 2.351v3.083h4.783l-0.625 4.83h-4.158v12.393h8.154c0.976 0 1.768-0.792 1.768-1.766v-28.467c-0.001-0.975-0.791-1.765-1.767-1.765z"></path>
</symbol>
<symbol id="plane" viewBox="0 0 32 32">
<title>plane</title>
<path d="M30.232 0.001h-28.466c-0.975 0-1.766 0.79-1.766 1.766v28.466c0 0.976 0.791 1.767 1.766 1.767h15.325v-12.392h-4.17v-4.83h4.17v-3.562c0-4.132 2.523-6.384 6.211-6.384 1.768 0 3.284 0.132 3.726 0.19v4.319l-2.558 0.001c-2.005 0-2.392 0.953-2.392 2.351v3.083h4.783l-0.625 4.83h-4.158v12.393h8.154c0.976 0 1.768-0.792 1.768-1.766v-28.467c-0.001-0.975-0.791-1.765-1.767-1.765z"></path>
</symbol>
</defs>
</svg>
