<svg aria-hidden="true" style="position: absolute; width: 0; height: 0; overflow: hidden;" version="1.1" xmlns="http://www.w3.org/2000/svg" xmlns:xlink="http://www.w3.org/1999/xlink">
<defs>
<symbol id="untitled" viewBox="0 0 32 32">
<title>untitled</title>
<path d="M30.232 0.001h-28.466c-0.975 0-1.766 0.79-1.766 1.766v28.466c0 0.976 0.791 1.767 1.766 1.767h15.325v-12.392h-4.17v-4.83h4.17v-3.562c0-4.132 2.523-6.384 6.211-6.384 1.768 0 3.284 0.132 3.726 0.19v4.319l-2.558 0.001c-2.005 0-2.392 0.953-2.392 2.351v3.083h4.783l-0.625 4.83h-4.158v12.393h8.154c0.976 0 1.768-0.792 1.768-1.766v-28.467c-0.001-0.975-0.791-1.765-1.767-1.765z"></path>
</symbol>
<symbol id="search" viewBox="0 0 32 32">
<title>search</title>
<path d="M30.232 0.001h-28.466c-0.975 0-1.766 0.79-1.766 1.766v28.466c0 0.976 0.791 1.767 1.766 1.767h15.325v-12.392h-4.17v-4.83h4.17v-3.562c0-4.132 2.523-6.384 6.211-6.384 1.768 0 3.284 0.132 3.726 0.19v4.319l-2.558 0.001c-2.005 0-2.392 0.953-2.392 2.351v3.083h4.783l-0.625 4.83h-4.158v12.393h8.154c0.976 0 1.768-0.792 1.768-1.766v-28.467c-0.001-0.975-0.791-1.765-1.767-1.765z"></path>
</symbol>
<symbol id="plane" viewBox="0 0 32 32">
<title>plane</title>
<path d="M30.232 0.001h-28.466c-0.975 0-1.766 0.79-1.766 1.766v28.466c0 0.976 0.791 1.767 1.766 1.767h15.325v-12.392h-4.17v-4.83h4.17v-3.562c0-4.132 2.523-6.384 6.211-6.384 1.768 0 3.284 0.132 3.726 0.19v4.319l-2.558 0.001c-2.005 0-2.392 0.953-2.392 2.351v3.083h4.783l-0.625 4.83h-4.158v12.393h8.154c0.976 0 1.768-0.792 1.768-1.766v-28.467c-0.001-0.975-0.791-1.765-1.767-1.765z"></path>
</symbol>
<symbol id="registration-icon" viewBox="0 0 32 32">
<title>registration-icon</title>
<path d="M30.232 0.001h-28.466c-0.975 0-1.766 0.79-1.766 1.766v28.466c0 0.976 0.791 1.767 1.766 1.767h15.325v-12.392h-4.17v-4.83h4.17v-3.562c0-4.132 2.523-6.384 6.211-6.384 1.768 0 3.284 0.132 3.726 0.19v4.319l-2.558 0.001c-2.005 0-2.392 0.953-2.392 2.351v3.083h4.783l-0.625 4.83h-4.158v12.393h8.154c0.976 0 1.768-0.792 1.768-1.766v-28.467c-0.001-0.975-0.791-1.765-1.767-1.765z"></path>
</symbol>
<symbol id="heart" viewBox="0 0 32 32">
<title>heart</title>
<path d="M30.232 0.001h-28.466c-0.975 0-1.766 0.79-1.766 1.766v28.466c0 0.976 0.791 1.767 1.766 1.767h15.325v-12.392h-4.17v-4.83h4.17v-3.562c0-4.132 2.523-6.384 6.211-6.384 1.768 0 3.284 0.132 3.726 0.19v4.319l-2.558 0.001c-2.005 0-2.392 0.953-2.392 2.351v3.083h4.783l-0.625 4.83h-4.158v12.393h8.154c0.976 0 1.768-0.792 1.768-1.766v-28.467c-0.001-0.975-0.791-1.765-1.767-1.765z"></path>
</symbol>
<symbol id="bag" viewBox="0 0 32 32">
<title>bag</title>
<path d="M30.232 0.001h-28.466c-0.975 0-1.766 0.79-1.766 1.766v28.466c0 0.976 0.791 1.767 1.766 1.767h15.325v-12.392h-4.17v-4.83h4.17v-3.562c0-4.132 2.523-6.384 6.211-6.384 1.768 0 3.284 0.132 3.726 0.19v4.319l-2.558 0.001c-2.005 0-2.392 0.953-2.392 2.351v3.083h4.783l-0.625 4.83h-4.158v12.393h8.154c0.976 0 1.768-0.792 1.768-1.766v-28.467c-0.001-0.975-0.791-1.765-1.767-1.765z"></path>
</symbol>
<symbol id="instagram-logo" viewBox="0 0 32 32">
<title>instagram-logo</title>
<path d="M28.8 0h-25.6c-1.76 0-3.2 1.44-3.2 3.2v25.6c0 1.76 1.44 3.2 3.2 3.2h25.6c1.76 0 3.2-1.44 3.2-3.2v-25.6c0-1.76-1.44-3.2-3.2-3.2zM16 9.6c3.52 0 6.4 2.88 6.4 6.4s-2.88 6.4-6.4 6.4c-3.52 0-6.4-2.88-6.4-6.4s2.88-6.4 6.4-6.4zM4 28.8c-0.48 0-0.8-0.32-0.8-0.8v-13.6h3.36c-0.16 0.48-0.16 1.12-0.16 1.6 0 5.28 4.32 9.6 9.6 9.6s9.6-4.32 9.6-9.6c0-0.48 0-1.12-0.16-1.6h3.36v13.6c0 0.48-0.32 0.8-0.8 0.8h-24zM28.8 7.2c0 0.48-0.32 0.8-0.8 0.8h-3.2c-0.48 0-0.8-0.32-0.8-0.8v-3.2c0-0.48 0.32-0.8 0.8-0.8h3.2c0.48 0 0.8 0.32 0.8 0.8v3.2z"></path>
</symbol>
<symbol id="facebook-app-logo" viewBox="0 0 32 32">
<title>facebook-app-logo</title>
<path d="M30.232 0.001h-28.466c-0.975 0-1.766 0.79-1.766 1.766v28.466c0 0.976 0.791 1.767 1.766 1.767h15.325v-12.392h-4.17v-4.83h4.17v-3.562c0-4.132 2.523-6.384 6.211-6.384 1.768 0 3.284 0.132 3.726 0.19v4.319l-2.558 0.001c-2.005 0-2.392 0.953-2.392 2.351v3.083h4.783l-0.625 4.83h-4.158v12.393h8.154c0.976 0 1.768-0.792 1.768-1.766v-28.467c-0.001-0.975-0.791-1.765-1.767-1.765z"></path>
</symbol>

<symbol id="navigation" viewBox="0 0 32 32">
<title>navigation</title>
<path d="M51.353,0.914c-0.295-0.305-0.75-0.39-1.135-0.213L0.583,23.481c-0.399,0.184-0.632,0.605-0.574,1.041  s0.393,0.782,0.826,0.854l22.263,3.731l2.545,21.038c0.054,0.438,0.389,0.791,0.824,0.865c0.057,0.01,0.113,0.015,0.169,0.015  c0.375,0,0.726-0.211,0.896-0.556l24-48.415C51.72,1.675,51.648,1.218,51.353,0.914z M27.226,46.582l-2.232-18.457  c-0.054-0.44-0.391-0.793-0.828-0.866L4.374,23.941L48.485,3.697L27.226,46.582z" data-original="#000000" class="active-path" data-old_color="#FBF8F8" fill="#FCFBFB"/>

</symbol>

</defs>
</svg>
