<svg aria-hidden="true" style="position:absolute;width:0;height:0" xmlns="http://www.w3.org/2000/svg" overflow="hidden"><defs><symbol id="untitled" viewBox="0 0 32 32"><path d="M30.232.001H1.766C.791.001 0 .791 0 1.767v28.466C0 31.209.791 32 1.766 32h15.325V19.608h-4.17v-4.83h4.17v-3.562c0-4.132 2.523-6.384 6.211-6.384 1.768 0 3.284.132 3.726.19v4.319l-2.558.001c-2.005 0-2.392.953-2.392 2.351v3.083h4.783l-.625 4.83h-4.158v12.393h8.154c.976 0 1.768-.792 1.768-1.766V1.766A1.766 1.766 0 0 0 30.233.001z"/></symbol><symbol id="search" viewBox="0 0 32 32"><path d="M30.232.001H1.766C.791.001 0 .791 0 1.767v28.466C0 31.209.791 32 1.766 32h15.325V19.608h-4.17v-4.83h4.17v-3.562c0-4.132 2.523-6.384 6.211-6.384 1.768 0 3.284.132 3.726.19v4.319l-2.558.001c-2.005 0-2.392.953-2.392 2.351v3.083h4.783l-.625 4.83h-4.158v12.393h8.154c.976 0 1.768-.792 1.768-1.766V1.766A1.766 1.766 0 0 0 30.233.001z"/></symbol><symbol id="plane" viewBox="0 0 32 32"><path d="M30.232.001H1.766C.791.001 0 .791 0 1.767v28.466C0 31.209.791 32 1.766 32h15.325V19.608h-4.17v-4.83h4.17v-3.562c0-4.132 2.523-6.384 6.211-6.384 1.768 0 3.284.132 3.726.19v4.319l-2.558.001c-2.005 0-2.392.953-2.392 2.351v3.083h4.783l-.625 4.83h-4.158v12.393h8.154c.976 0 1.768-.792 1.768-1.766V1.766A1.766 1.766 0 0 0 30.233.001z"/></symbol><symbol id="registration-icon" viewBox="0 0 32 32"><path d="M30.232.001H1.766C.791.001 0 .791 0 1.767v28.466C0 31.209.791 32 1.766 32h15.325V19.608h-4.17v-4.83h4.17v-3.562c0-4.132 2.523-6.384 6.211-6.384 1.768 0 3.284.132 3.726.19v4.319l-2.558.001c-2.005 0-2.392.953-2.392 2.351v3.083h4.783l-.625 4.83h-4.158v12.393h8.154c.976 0 1.768-.792 1.768-1.766V1.766A1.766 1.766 0 0 0 30.233.001z"/></symbol><symbol id="heart" viewBox="0 0 32 32"><path d="M30.232.001H1.766C.791.001 0 .791 0 1.767v28.466C0 31.209.791 32 1.766 32h15.325V19.608h-4.17v-4.83h4.17v-3.562c0-4.132 2.523-6.384 6.211-6.384 1.768 0 3.284.132 3.726.19v4.319l-2.558.001c-2.005 0-2.392.953-2.392 2.351v3.083h4.783l-.625 4.83h-4.158v12.393h8.154c.976 0 1.768-.792 1.768-1.766V1.766A1.766 1.766 0 0 0 30.233.001z"/></symbol><symbol id="bag" viewBox="0 0 32 32"><path d="M30.232.001H1.766C.791.001 0 .791 0 1.767v28.466C0 31.209.791 32 1.766 32h15.325V19.608h-4.17v-4.83h4.17v-3.562c0-4.132 2.523-6.384 6.211-6.384 1.768 0 3.284.132 3.726.19v4.319l-2.558.001c-2.005 0-2.392.953-2.392 2.351v3.083h4.783l-.625 4.83h-4.158v12.393h8.154c.976 0 1.768-.792 1.768-1.766V1.766A1.766 1.766 0 0 0 30.233.001z"/></symbol><symbol id="instagram-logo" viewBox="0 0 32 32"><path d="M28.8 0H3.2A3.21 3.21 0 0 0 0 3.2v25.6C0 30.56 1.44 32 3.2 32h25.6c1.76 0 3.2-1.44 3.2-3.2V3.2C32 1.44 30.56 0 28.8 0zM16 9.6c3.52 0 6.4 2.88 6.4 6.4s-2.88 6.4-6.4 6.4c-3.52 0-6.4-2.88-6.4-6.4s2.88-6.4 6.4-6.4zM4 28.8c-.48 0-.8-.32-.8-.8V14.4h3.36c-.16.48-.16 1.12-.16 1.6 0 5.28 4.32 9.6 9.6 9.6s9.6-4.32 9.6-9.6c0-.48 0-1.12-.16-1.6h3.36V28c0 .48-.32.8-.8.8H4zM28.8 7.2c0 .48-.32.8-.8.8h-3.2c-.48 0-.8-.32-.8-.8V4c0-.48.32-.8.8-.8H28c.48 0 .8.32.8.8v3.2z"/></symbol><symbol id="facebook-app-logo" viewBox="0 0 32 32"><path d="M30.232.001H1.766C.791.001 0 .791 0 1.767v28.466C0 31.209.791 32 1.766 32h15.325V19.608h-4.17v-4.83h4.17v-3.562c0-4.132 2.523-6.384 6.211-6.384 1.768 0 3.284.132 3.726.19v4.319l-2.558.001c-2.005 0-2.392.953-2.392 2.351v3.083h4.783l-.625 4.83h-4.158v12.393h8.154c.976 0 1.768-.792 1.768-1.766V1.766A1.766 1.766 0 0 0 30.233.001z"/></symbol></defs></svg>