<svg aria-hidden="true" style="position:absolute;width:0;height:0" xmlns="http://www.w3.org/2000/svg" overflow="hidden"><defs><symbol id="untitled" viewBox="0 0 32 32"><path d="M30.232.001H1.766C.791.001 0 .791 0 1.767v28.466C0 31.209.791 32 1.766 32h15.325V19.608h-4.17v-4.83h4.17v-3.562c0-4.132 2.523-6.384 6.211-6.384 1.768 0 3.284.132 3.726.19v4.319l-2.558.001c-2.005 0-2.392.953-2.392 2.351v3.083h4.783l-.625 4.83h-4.158v12.393h8.154c.976 0 1.768-.792 1.768-1.766V1.766A1.766 1.766 0 0 0 30.233.001z"/></symbol><symbol id="untitled1" viewBox="0 0 34 32"><path d="M30.232.001H1.766C.791.001 0 .791 0 1.767v28.466C0 31.209.791 32 1.766 32h15.325V19.608h-4.17v-4.83h4.17v-3.562c0-4.132 2.523-6.384 6.211-6.384 1.768 0 3.284.132 3.726.19v4.319l-2.558.001c-2.005 0-2.392.953-2.392 2.351v3.083h4.783l-.625 4.83h-4.158v12.393h8.154c.976 0 1.768-.792 1.768-1.766V1.766A1.766 1.766 0 0 0 30.233.001z"/></symbol><symbol id="heart" viewBox="0 0 37 32"><path d="M30.232.001H1.766C.791.001 0 .791 0 1.767v28.466C0 31.209.791 32 1.766 32h15.325V19.608h-4.17v-4.83h4.17v-3.562c0-4.132 2.523-6.384 6.211-6.384 1.768 0 3.284.132 3.726.19v4.319l-2.558.001c-2.005 0-2.392.953-2.392 2.351v3.083h4.783l-.625 4.83h-4.158v12.393h8.154c.976 0 1.768-.792 1.768-1.766V1.766A1.766 1.766 0 0 0 30.233.001z"/></symbol><symbol id="facebook-app-logo" viewBox="0 0 32 32"><path d="M30.232.001H1.766C.791.001 0 .791 0 1.767v28.466C0 31.209.791 32 1.766 32h15.325V19.608h-4.17v-4.83h4.17v-3.562c0-4.132 2.523-6.384 6.211-6.384 1.768 0 3.284.132 3.726.19v4.319l-2.558.001c-2.005 0-2.392.953-2.392 2.351v3.083h4.783l-.625 4.83h-4.158v12.393h8.154c.976 0 1.768-.792 1.768-1.766V1.766A1.766 1.766 0 0 0 30.233.001z"/></symbol><symbol id="instagram" viewBox="0 0 32 32"><path d="M30.232.001H1.766C.791.001 0 .791 0 1.767v28.466C0 31.209.791 32 1.766 32h15.325V19.608h-4.17v-4.83h4.17v-3.562c0-4.132 2.523-6.384 6.211-6.384 1.768 0 3.284.132 3.726.19v4.319l-2.558.001c-2.005 0-2.392.953-2.392 2.351v3.083h4.783l-.625 4.83h-4.158v12.393h8.154c.976 0 1.768-.792 1.768-1.766V1.766A1.766 1.766 0 0 0 30.233.001z"/></symbol><symbol id="plane" viewBox="0 0 32 32"><path d="M30.232.001H1.766C.791.001 0 .791 0 1.767v28.466C0 31.209.791 32 1.766 32h15.325V19.608h-4.17v-4.83h4.17v-3.562c0-4.132 2.523-6.384 6.211-6.384 1.768 0 3.284.132 3.726.19v4.319l-2.558.001c-2.005 0-2.392.953-2.392 2.351v3.083h4.783l-.625 4.83h-4.158v12.393h8.154c.976 0 1.768-.792 1.768-1.766V1.766A1.766 1.766 0 0 0 30.233.001z"/></symbol></defs></svg>